<svg width="133" height="38" viewBox="0 0 133 38" fill="none" xmlns="http://www.w3.org/2000/svg">
<path d="M130.413 2.97582C131.838 4.6683 130.597 6.71968 129.299 8.17529C125.04 12.9501 117.008 13.0557 111.147 13.3283C88.1435 14.3983 66.2308 6.86799 43.8555 3.02224C38.09 2.03128 31.7922 1.10708 25.9591 2.09376C20.0081 3.10041 16.4683 4.384 12.9605 9.28946C9.18414 14.5704 7.24169 18.9655 7.15748 25.4914C7.11956 28.4306 7.15748 31.3724 7.15748 34.3119" stroke="#9153DF" stroke-width="3" stroke-linecap="round"/>
<path d="M2.20508 28.4102C3.82995 30.7053 5.37118 33.0111 6.85314 35.3823" stroke="#9153DF" stroke-width="3" stroke-linecap="round"/>
<path d="M7.55078 35.6146C9.82751 33.1482 10.9965 29.8314 13.8257 27.9453" stroke="#9153DF" stroke-width="3" stroke-linecap="round"/>
</svg>
