<svg width="40" height="45" viewBox="0 0 40 45" fill="none" xmlns="http://www.w3.org/2000/svg">
<path d="M1.81445 2.11328C11.0162 2.11328 18.3612 9.81804 22.9535 17.0653C26.0052 21.8813 28.288 27.8978 29.4842 33.4266C30.0676 36.1224 30.4323 38.8143 31.306 41.4353C31.5124 42.0544 31.5122 42.6149 31.5122 43.2571" stroke="#9153DF" stroke-width="3" stroke-linecap="round"/>
<path d="M31.8318 43.3915C31.6461 43.3384 33.0076 41.5539 33.1443 41.3499C33.6648 40.5727 34.0967 39.7331 34.7645 39.0653C35.8172 38.0127 36.8344 36.9243 37.8106 35.8086" stroke="#9153DF" stroke-width="3" stroke-linecap="round"/>
<path d="M22.9375 36.1016C25.0742 37.8498 27.6023 39.0635 29.7021 40.8895C30.2135 41.3342 30.5506 41.9848 31.1037 42.372C31.4175 42.5917 31.6372 43.1011 31.9786 43.1011" stroke="#9153DF" stroke-width="3" stroke-linecap="round"/>
</svg>
