<svg width="335" height="262" viewBox="0 0 335 262" fill="none" xmlns="http://www.w3.org/2000/svg">
<ellipse cx="124.446" cy="195.011" rx="124.446" ry="195.011" transform="matrix(0.878613 0.477534 -0.567455 0.823405 221.318 -149)" fill="url(#paint0_radial_176_6060)"/>
<path d="M308.405 10.4493C299.486 20.2275 282.467 37.9417 275.968 44.213C268.005 51.8945 265.33 53.8352 264.97 52.2301C264.634 50.7358 269.62 42.4879 277.374 31.7073C282.34 24.8153 282.515 24.4391 279.159 28.1114C268.999 39.289 262.158 45.9087 261.299 45.399C260.962 45.1996 262.686 40.3198 264.284 36.9009C266.556 32.0103 269.526 27.1978 273.843 21.3124C276.108 18.2647 277.854 15.7977 277.761 15.8143C277.636 15.8363 273.733 19.2316 269.081 23.3348C250.224 40.0794 239.162 49.1148 237.074 49.4842C234.955 49.8592 236.235 46.4677 240.64 39.9627C241.781 38.2645 242.661 36.8428 242.58 36.7709C242.138 36.5326 217.165 57.3518 208.166 65.4754C194.509 77.8183 188.285 84.1562 185.64 88.3935C182.277 93.7647 180.953 97.3941 180.606 102.347C180.335 105.905 181.676 111.882 183.462 115.076C188.614 124.321 198.069 129.928 209.659 130.61C213.666 130.851 220.396 129.66 223.993 128.074C227.74 126.432 230.14 124.857 233.726 121.633C238.315 117.541 240.367 115.279 244.628 109.576C251.034 101.019 258.771 88.5727 267.121 73.3709C272.944 62.7883 272.881 62.9432 268.97 68.0375C264.579 73.7346 262.982 75.1392 262.641 73.6171C262.436 72.7039 263.815 69.8991 266.442 65.8666C270.747 59.2065 296.653 25.3611 305.491 14.7915C307.818 12.0205 312.446 6.22395 312.297 6.27919C312.234 6.29022 310.482 8.15402 308.405 10.4493Z" fill="black"/>
<defs>
<radialGradient id="paint0_radial_176_6060" cx="0" cy="0" r="1" gradientUnits="userSpaceOnUse" gradientTransform="translate(146.703 143.39) rotate(7.04841) scale(70.3591 178.352)">
<stop stop-color="#9153DF" stop-opacity="0.88"/>
<stop offset="1" stop-color="#DBCCEE"/>
</radialGradient>
</defs>
</svg>
