<svg width="80" height="80" viewBox="0 0 80 80" fill="none" xmlns="http://www.w3.org/2000/svg">
<path d="M62 80H18.6667C17.745 80 17 79.255 17 78.3333V1.66667C17 0.745 17.745 0 18.6667 0H62C62.9217 0 63.6667 0.745 63.6667 1.66667V78.3333C63.6667 79.255 62.9217 80 62 80ZM20.3333 76.6667H60.3333V3.33333H20.3333V76.6667Z" fill="#9153DF"/>
<path d="M37 73.332H25.3333C24.4117 73.332 23.6667 72.587 23.6667 71.6654V64.9987C23.6667 64.077 24.4117 63.332 25.3333 63.332H37C37.9217 63.332 38.6667 64.077 38.6667 64.9987V71.6654C38.6667 72.587 37.9217 73.332 37 73.332ZM27 69.9987H35.3333V66.6654H27V69.9987ZM55.3333 73.332H43.6667C42.745 73.332 42 72.587 42 71.6654V64.9987C42 64.077 42.745 63.332 43.6667 63.332H55.3333C56.255 63.332 57 64.077 57 64.9987V71.6654C57 72.587 56.255 73.332 55.3333 73.332ZM45.3333 69.9987H53.6667V66.6654H45.3333V69.9987ZM62 59.9987H18.6667C17.745 59.9987 17 59.2537 17 58.332C17 57.4104 17.745 56.6654 18.6667 56.6654H62C62.9217 56.6654 63.6667 57.4104 63.6667 58.332C63.6667 59.2537 62.9217 59.9987 62 59.9987ZM52 53.332H28.6667C27.745 53.332 27 52.587 27 51.6654V14.9987C27 14.077 27.745 13.332 28.6667 13.332H52C52.9217 13.332 53.6667 14.077 53.6667 14.9987V51.6654C53.6667 52.587 52.9217 53.332 52 53.332ZM30.3333 49.9987H50.3333V16.6654H30.3333V49.9987Z" fill="#9153DF"/>
<path d="M44.6667 16.668H34.6667C33.745 16.668 33 15.923 33 15.0013V8.33464C33 7.41297 33.745 6.66797 34.6667 6.66797H44.6667C45.5883 6.66797 46.3333 7.41297 46.3333 8.33464V15.0013C46.3333 15.923 45.5883 16.668 44.6667 16.668ZM36.3333 13.3346H43V10.0013H36.3333V13.3346ZM43 26.668H36.3333C35.4117 26.668 34.6667 25.923 34.6667 25.0013C34.6667 24.0796 35.4117 23.3346 36.3333 23.3346H43C43.9217 23.3346 44.6667 24.0796 44.6667 25.0013C44.6667 25.923 43.9217 26.668 43 26.668ZM43 46.668H36.3333C35.4117 46.668 34.6667 45.923 34.6667 45.0013C34.6667 44.0796 35.4117 43.3346 36.3333 43.3346H43C43.9217 43.3346 44.6667 44.0796 44.6667 45.0013C44.6667 45.923 43.9217 46.668 43 46.668Z" fill="#9153DF"/>
<path d="M39.6667 30C38.745 30 38 29.255 38 28.3333V21.6667C38 20.745 38.745 20 39.6667 20C40.5883 20 41.3333 20.745 41.3333 21.6667V28.3333C41.3333 29.255 40.5883 30 39.6667 30Z" fill="#9153DF"/>
</svg>
