<svg width="80" height="81" viewBox="0 0 80 81" fill="none" xmlns="http://www.w3.org/2000/svg">
<path fill-rule="evenodd" clip-rule="evenodd" d="M7.5 5.09242C7.5 3.66931 8.6193 2.51562 10 2.51562H28C29.3807 2.51562 30.5 3.66931 30.5 5.09242C30.5 6.51553 29.3807 7.66921 28 7.66921H12.5V23.6453C12.5 25.0684 11.3807 26.2221 10 26.2221C8.6193 26.2221 7.5 25.0684 7.5 23.6453V5.09242ZM49.5 5.09242C49.5 3.66931 50.6193 2.51562 52 2.51562H70C71.3807 2.51562 72.5 3.66931 72.5 5.09242V23.6453C72.5 25.0684 71.3807 26.2221 70 26.2221C68.6193 26.2221 67.5 25.0684 67.5 23.6453V7.66921H52C50.6193 7.66921 49.5 6.51553 49.5 5.09242ZM10 45.8057C11.3807 45.8057 12.5 46.9594 12.5 48.3825V64.3586H28C29.3807 64.3586 30.5 65.5123 30.5 66.9354C30.5 68.3585 29.3807 69.5122 28 69.5122H10C8.6193 69.5122 7.5 68.3585 7.5 66.9354V48.3825C7.5 46.9594 8.6193 45.8057 10 45.8057ZM70 45.8057C71.3807 45.8057 72.5 46.9594 72.5 48.3825V66.9354C72.5 68.3585 71.3807 69.5122 70 69.5122H52C50.6193 69.5122 49.5 68.3585 49.5 66.9354C49.5 65.5123 50.6193 64.3586 52 64.3586H67.5V48.3825C67.5 46.9594 68.6193 45.8057 70 45.8057Z" fill="#9153DF"/>
<path fill-rule="evenodd" clip-rule="evenodd" d="M4.16602 36.0143C4.16602 34.5912 5.28532 33.4375 6.66602 33.4375H73.3327C74.7133 33.4375 75.8327 34.5912 75.8327 36.0143C75.8327 37.4374 74.7133 38.5911 73.3327 38.5911H6.66602C5.28532 38.5911 4.16602 37.4374 4.16602 36.0143Z" fill="white"/>
</svg>
