<svg width="80" height="80" viewBox="0 0 80 80" fill="none" xmlns="http://www.w3.org/2000/svg">
<path d="M79.25 75.3103L70 65.1034C72.25 61.7931 73.625 57.6552 73.625 53.1035C73.625 48.5517 72.125 44.2759 69.75 40.8276C69.75 40 69.875 39.3103 69.875 38.6207C70 17.3793 54.25 0 35 0C29.375 0 23.75 1.51724 18.75 4.41379C17.5 5.10345 17 6.75862 17.75 8.13793C18.375 9.51724 19.875 10.069 21.125 9.24138C23 8.13793 25 7.31035 27 6.62069C25.375 9.7931 24 14.2069 23 19.5862C17.875 18.6207 13.25 17.2414 10 15.3103C9.25 14.8966 8.25 14.8966 7.625 15.3103C7.25 15.4483 6.875 15.8621 6.625 16.2759C2.25 22.8966 0 30.6207 0 38.6207C0 59.8621 15.75 77.2414 35 77.2414C40.75 77.2414 46.5 75.5862 51.625 72.5517C52.875 72.8276 54.25 73.1034 55.625 73.1034C59.75 73.1034 63.5 71.5862 66.5 69.1034L75.75 79.3103C76.25 79.7241 76.875 80 77.5 80C78.125 80 78.75 79.7241 79.25 79.1724C80.25 78.069 80.25 76.4138 79.25 75.3103ZM27.625 55.5862C30 55.3103 32.5 55.1724 35 55.1724C35.875 55.1724 36.75 55.1724 37.625 55.1724C37.875 58.3448 38.875 61.2414 40.375 63.8621C38.5 69.6552 36.375 71.7241 35 71.7241C32.625 71.7241 29.375 65.7931 27.625 55.5862ZM37.75 49.6552C36.875 49.6552 35.875 49.6552 35 49.6552C32.25 49.6552 29.5 49.7931 26.875 50.069C26.625 47.3103 26.375 44.4138 26.375 41.3793H41C39.375 43.8621 38.25 46.6207 37.75 49.6552ZM5.125 41.3793H21.25C21.375 44.5517 21.5 47.7241 21.875 50.7586C16.875 51.5862 12.5 53.1034 8.875 54.8966C6.75 50.8966 5.5 46.2069 5.125 41.3793ZM9.5 21.2414C13 22.8966 17.25 24.2759 22.125 25.1034C21.75 28.6897 21.5 32.2759 21.375 35.8621H5.125C5.5 30.6207 7 25.6552 9.5 21.2414ZM35 26.2069C37.75 26.2069 40.375 26.069 43 25.7931C43.375 28.8276 43.625 32.2759 43.75 35.8621H26.25C26.375 32.5517 26.625 29.1035 27 25.7931C29.625 26.069 32.25 26.2069 35 26.2069ZM48.625 34.6207C48.5 31.4483 48.25 28.1379 47.875 25.1034C52.625 24.2759 57 22.8966 60.5 21.2414C62.875 25.5172 64.5 30.6207 64.875 36C62.125 34.2069 59 33.1034 55.625 33.1034C53.125 33.1034 50.875 33.6552 48.625 34.6207ZM57.5 16.6897C54.625 17.931 51.125 19.0345 47.125 19.7241C46.125 14.6207 44.875 10.2069 43.125 6.75862C48.75 8.55172 53.625 12 57.5 16.6897ZM35 5.51724C37.375 5.51724 40.25 11.0345 42.125 20.4138C39.875 20.5517 37.375 20.6897 35 20.6897C32.625 20.6897 30.25 20.5517 27.875 20.4138C29.75 10.7586 32.875 5.51724 35 5.51724ZM11.75 59.5862C14.75 58.2069 18.5 56.9655 22.625 56.2759C23.625 61.7931 25 66.7586 26.875 70.4828C20.875 68.5517 15.625 64.6897 11.75 59.5862ZM43.125 70.4828C43.375 69.931 43.75 69.2414 44 68.5517C44.5 68.9655 44.875 69.3793 45.375 69.6552C44.625 69.931 43.875 70.2069 43.125 70.4828ZM42.5 53.1035C42.5 45.1034 48.375 38.6207 55.625 38.6207C62.875 38.6207 68.75 45.1034 68.75 53.1035C68.75 61.1035 62.875 67.5862 55.625 67.5862C48.375 67.5862 42.5 61.1035 42.5 53.1035Z" fill="#9153DF"/>
</svg>
