<svg width="326" height="317" viewBox="0 0 326 317" fill="none" xmlns="http://www.w3.org/2000/svg">
<g filter="url(#filter0_d_123_1847)">
<ellipse cx="118.555" cy="194.081" rx="118.555" ry="194.081" transform="matrix(0.670554 0.741861 -0.70805 0.706162 293.875 -144.055)" fill="url(#paint0_radial_123_1847)"/>
<path d="M339.874 -6.56605C327.366 6.14555 303.652 29.0346 294.677 37.0616C283.68 46.893 280.09 49.2698 279.91 46.8889C279.742 44.6721 287.186 33.5404 298.431 19.1902C305.631 10.0175 305.906 9.50125 301.201 14.2743C286.947 28.8107 277.496 37.2866 276.526 36.4102C276.147 36.0673 279.051 29.2835 281.563 24.5935C285.139 17.8827 289.557 11.3972 295.799 3.57673C299.066 -0.468475 301.606 -3.7568 301.489 -3.74795C301.332 -3.73615 296.002 0.547526 289.64 5.73484C263.833 26.9241 248.823 38.2147 246.207 38.4124C243.552 38.613 245.671 33.9115 252.12 25.2082C253.794 22.9349 255.102 21.0195 255.015 20.9022C254.512 20.4861 220.556 46.5849 208.219 56.889C189.495 72.5475 180.845 80.7151 176.918 86.4203C171.928 93.6509 169.717 98.6896 168.487 105.801C167.577 110.907 168.247 119.774 169.914 124.685C174.718 138.896 185.381 148.535 199.458 151.394C204.324 152.388 212.757 151.751 217.418 150.036C222.271 148.266 225.465 146.373 230.379 142.286C236.663 137.105 239.542 134.162 245.685 126.597C254.919 115.247 266.414 98.4838 279.107 77.8313C287.955 63.4558 287.853 63.6699 282.237 70.411C275.935 77.9471 273.752 79.7222 273.582 77.4644C273.479 76.1097 275.624 72.2732 279.495 66.8612C285.848 57.9176 323.064 13.1177 335.602 -0.752186C338.9 -4.38688 345.508 -12.0287 345.316 -11.9729C345.238 -11.967 342.79 -9.55252 339.874 -6.56605Z" fill="black"/>
</g>
<defs>
<filter id="filter0_d_123_1847" x="77.1699" y="-91.918" width="357.568" height="365.734" filterUnits="userSpaceOnUse" color-interpolation-filters="sRGB">
<feFlood flood-opacity="0" result="BackgroundImageFix"/>
<feColorMatrix in="SourceAlpha" type="matrix" values="0 0 0 0 0 0 0 0 0 0 0 0 0 0 0 0 0 0 127 0" result="hardAlpha"/>
<feOffset dx="20" dy="10"/>
<feGaussianBlur stdDeviation="10"/>
<feComposite in2="hardAlpha" operator="out"/>
<feColorMatrix type="matrix" values="0 0 0 0 0 0 0 0 0 0 0 0 0 0 0 0 0 0 0.39 0"/>
<feBlend mode="normal" in2="BackgroundImageFix" result="effect1_dropShadow_123_1847"/>
<feBlend mode="normal" in="SourceGraphic" in2="effect1_dropShadow_123_1847" result="shape"/>
</filter>
<radialGradient id="paint0_radial_123_1847" cx="0" cy="0" r="1" gradientUnits="userSpaceOnUse" gradientTransform="translate(179.829 157.153) rotate(51.6112) scale(92.2419 167.522)">
<stop stop-color="#9153DF" stop-opacity="0.62"/>
<stop offset="1" stop-color="#DBCCEE"/>
</radialGradient>
</defs>
</svg>
