<svg width="440" height="417" viewBox="0 0 440 417" fill="none" xmlns="http://www.w3.org/2000/svg">
<ellipse cx="124.446" cy="195.011" rx="124.446" ry="195.011" transform="matrix(0.878613 0.477534 -0.567455 0.823405 221.318 0.00195312)" fill="url(#paint0_radial_235_8447)"/>
<path d="M308.405 159.449C299.486 169.227 282.467 186.942 275.968 193.213C268.005 200.895 265.33 202.835 264.97 201.23C264.634 199.736 269.62 191.488 277.374 180.707C282.34 173.815 282.515 173.439 279.159 177.111C268.999 188.289 262.158 194.909 261.299 194.399C260.962 194.2 262.686 189.32 264.284 185.901C266.556 181.01 269.526 176.198 273.843 170.312C276.108 167.265 277.854 164.798 277.761 164.814C277.636 164.836 273.733 168.232 269.081 172.335C250.224 189.079 239.162 198.115 237.074 198.484C234.955 198.859 236.235 195.468 240.64 188.963C241.781 187.264 242.661 185.843 242.58 185.771C242.138 185.533 217.165 206.352 208.166 214.475C194.509 226.818 188.285 233.156 185.64 237.393C182.277 242.765 180.953 246.394 180.606 251.347C180.335 254.905 181.676 260.882 183.462 264.076C188.614 273.321 198.069 278.928 209.659 279.61C213.666 279.851 220.396 278.66 223.993 277.074C227.74 275.432 230.14 273.857 233.726 270.633C238.315 266.541 240.367 264.279 244.628 258.576C251.034 250.019 258.771 237.573 267.121 222.371C272.944 211.788 272.881 211.943 268.97 217.037C264.579 222.735 262.982 224.139 262.641 222.617C262.436 221.704 263.815 218.899 266.442 214.867C270.747 208.207 296.653 174.361 305.491 163.792C307.818 161.021 312.446 155.224 312.297 155.279C312.234 155.29 310.482 157.154 308.405 159.449Z" fill="black"/>
<defs>
<radialGradient id="paint0_radial_235_8447" cx="0" cy="0" r="1" gradientUnits="userSpaceOnUse" gradientTransform="translate(146.703 143.39) rotate(7.04841) scale(70.3591 178.352)">
<stop stop-color="#9153DF" stop-opacity="0.88"/>
<stop offset="1" stop-color="#DBCCEE"/>
</radialGradient>
</defs>
</svg>
