<svg width="70" height="66" viewBox="0 0 70 66" fill="none" xmlns="http://www.w3.org/2000/svg">
<path d="M68.8875 42.5825C68.4625 42.8675 67.98 43.0025 67.5025 43.0025C66.695 43.0025 65.9 42.6125 65.42 41.89L64.1925 40.0475C60.9325 54.62 47.795 65.5 32.5 65.5C14.58 65.5 0 50.92 0 33C0 15.08 14.58 0.5 32.5 0.5C42.93 0.5 52.8 5.5625 58.9 14.04C59.7075 15.16 59.4525 16.7225 58.33 17.53C57.205 18.335 55.645 18.08 54.84 16.96C49.6775 9.785 41.325 5.5 32.4975 5.5C17.335 5.5 4.9975 17.8375 4.9975 33C4.9975 48.1625 17.335 60.5 32.4975 60.5C45.1125 60.5 56 51.755 59.0975 39.8975L57.9625 41.025C56.9825 42 55.4 41.9925 54.4275 41.0125C53.455 40.0325 53.46 38.45 54.44 37.4775L60.735 31.2275C61.265 30.7 61.995 30.4375 62.7475 30.5125C63.49 30.5875 64.1625 30.9925 64.575 31.6125L69.575 39.115C70.34 40.2625 70.03 41.8175 68.8825 42.5825H68.8875ZM40.7325 24.9825L30 35.715L24.2675 29.9825C23.29 29.005 21.71 29.005 20.7325 29.9825C19.755 30.96 19.755 32.54 20.7325 33.5175L28.2325 41.0175C28.72 41.505 29.36 41.75 30 41.75C30.64 41.75 31.28 41.505 31.7675 41.0175L44.2675 28.5175C45.245 27.54 45.245 25.96 44.2675 24.9825C43.29 24.005 41.71 24.005 40.7325 24.9825Z" fill="#9153DF"/>
</svg>
