<svg width="312" height="344" viewBox="0 0 312 344" fill="none" xmlns="http://www.w3.org/2000/svg">
<path d="M265.338 231.429C204.223 320.111 105.725 365.395 45.3383 332.574C-15.0487 299.753 -14.458 201.256 46.6576 112.574C107.773 23.8923 206.271 -21.3919 266.658 11.429C327.045 44.2498 326.454 142.747 265.338 231.429Z" fill="url(#paint0_radial_2030_3)"/>
<path d="M244.404 111.449C235.485 121.227 218.465 138.941 211.967 145.213C204.004 152.894 201.329 154.835 200.969 153.23C200.633 151.735 205.619 143.487 213.373 132.707C218.339 125.815 218.514 125.439 215.158 129.111C204.998 140.289 198.157 146.908 197.298 146.399C196.961 146.199 198.685 141.319 200.283 137.9C202.555 133.01 205.525 128.197 209.842 122.312C212.107 119.264 213.853 116.797 213.76 116.814C213.635 116.836 209.732 120.231 205.08 124.334C186.222 141.079 175.161 150.114 173.073 150.484C170.954 150.859 172.234 147.467 176.639 140.962C177.78 139.264 178.66 137.842 178.579 137.77C178.137 137.532 153.163 158.351 144.165 166.475C130.508 178.818 124.284 185.156 121.639 189.393C118.276 194.764 116.952 198.394 116.605 203.346C116.334 206.904 117.675 212.882 119.461 216.076C124.613 225.321 134.068 230.927 145.658 231.61C149.665 231.85 156.395 230.659 159.992 229.073C163.739 227.432 166.139 225.856 169.725 222.632C174.314 218.54 176.366 216.278 180.627 210.575C187.033 202.019 194.77 189.572 203.12 174.37C208.943 163.788 208.88 163.943 204.969 169.037C200.577 174.734 198.981 176.139 198.64 174.617C198.435 173.703 199.814 170.899 202.441 166.866C206.746 160.206 232.652 126.361 241.49 115.791C243.817 113.02 248.445 107.223 248.296 107.279C248.233 107.29 246.481 109.154 244.404 111.449Z" fill="black"/>
<path d="M244.034 111.112C235.12 120.886 218.108 138.591 211.62 144.853C207.635 148.697 204.999 151.078 203.322 152.299C202.467 152.922 201.932 153.188 201.631 153.242C201.557 153.256 201.519 153.252 201.503 153.249C201.494 153.236 201.475 153.201 201.456 153.12C201.446 153.072 201.448 152.891 201.565 152.507C201.675 152.15 201.862 151.687 202.127 151.121C202.658 149.992 203.482 148.501 204.565 146.709C206.73 143.128 209.906 138.383 213.779 132.999C215.02 131.276 215.964 129.958 216.629 129.008C217.281 128.075 217.691 127.459 217.835 127.169C217.854 127.128 217.876 127.082 217.892 127.034C217.903 127.002 217.937 126.904 217.928 126.786C217.923 126.72 217.902 126.601 217.809 126.49C217.706 126.366 217.57 126.317 217.459 126.307C217.289 126.292 217.161 126.366 217.138 126.379C217.052 126.426 216.967 126.497 216.901 126.554C216.827 126.619 216.74 126.702 216.642 126.799C216.253 127.183 215.626 127.858 214.789 128.774L214.788 128.775C209.711 134.36 205.469 138.8 202.393 141.778C200.852 143.269 199.614 144.384 198.713 145.091C198.367 145.363 198.08 145.567 197.852 145.708C197.862 145.671 197.871 145.633 197.882 145.592C198.016 145.074 198.244 144.353 198.537 143.523C199.121 141.864 199.945 139.805 200.736 138.112L200.737 138.111C202.99 133.26 205.94 128.477 210.244 122.61C211.377 121.084 212.382 119.703 213.093 118.704C213.448 118.205 213.731 117.798 213.921 117.516C214.014 117.377 214.09 117.261 214.14 117.178C214.162 117.14 214.19 117.093 214.211 117.048L214.211 117.046C214.218 117.032 214.246 116.971 214.258 116.893L214.258 116.891C214.262 116.864 214.285 116.713 214.192 116.558C214.133 116.46 214.04 116.381 213.923 116.341C213.818 116.305 213.726 116.312 213.673 116.321C213.589 116.336 213.528 116.37 213.519 116.374C213.497 116.386 213.479 116.398 213.467 116.405C213.458 116.411 213.45 116.416 213.441 116.422C213.425 116.433 213.41 116.444 213.395 116.455C213.351 116.488 213.294 116.533 213.228 116.586C213.096 116.692 212.911 116.846 212.682 117.039C212.224 117.427 211.577 117.983 210.79 118.666C209.215 120.032 207.075 121.907 204.749 123.959L204.748 123.961C195.321 132.331 187.847 138.771 182.471 143.163C179.783 145.359 177.625 147.038 176.012 148.19C175.206 148.766 174.542 149.205 174.022 149.509C173.483 149.824 173.15 149.962 172.986 149.991C172.77 150.03 172.67 150.005 172.637 149.991C172.637 149.991 172.636 149.99 172.635 149.99C172.626 149.987 172.612 149.981 172.596 149.926C172.572 149.846 172.559 149.691 172.602 149.433C172.644 149.181 172.733 148.864 172.878 148.479C173.461 146.924 174.852 144.492 177.053 141.243L177.054 141.241C177.627 140.389 178.136 139.602 178.494 139.017C178.672 138.726 178.817 138.477 178.914 138.293C178.961 138.203 179.004 138.113 179.034 138.035C179.047 137.999 179.067 137.942 179.077 137.876C179.082 137.843 179.089 137.784 179.079 137.712C179.07 137.643 179.036 137.508 178.911 137.397L178.868 137.358L178.816 137.33C178.683 137.258 178.558 137.266 178.511 137.272C178.453 137.278 178.406 137.292 178.378 137.302C178.321 137.321 178.269 137.348 178.23 137.369C178.147 137.413 178.048 137.477 177.939 137.55C177.718 137.699 177.414 137.921 177.041 138.204C176.292 138.77 175.241 139.599 173.968 140.623C171.42 142.671 167.973 145.507 164.26 148.603C156.836 154.794 148.337 162.035 143.83 166.104L143.83 166.104C130.19 178.432 123.905 184.819 121.215 189.128C117.821 194.548 116.46 198.256 116.106 203.31C115.966 205.157 116.244 207.594 116.774 209.957C117.305 212.322 118.1 214.666 119.025 216.32C124.269 225.73 133.888 231.417 145.628 232.109C147.685 232.232 150.412 231.988 153.066 231.519C155.719 231.049 158.345 230.346 160.194 229.531M244.034 111.112L160.194 229.531M244.034 111.112C245.074 109.963 246.033 108.922 246.74 108.166C247.094 107.788 247.386 107.479 247.594 107.264C247.698 107.157 247.784 107.07 247.847 107.009C247.871 106.985 247.895 106.963 247.917 106.943C247.922 106.937 247.928 106.932 247.933 106.928C247.946 106.917 247.964 106.901 247.984 106.886C247.994 106.878 248.012 106.865 248.035 106.851C248.041 106.848 248.073 106.828 248.123 106.81L248.124 106.809C248.153 106.798 248.321 106.736 248.512 106.827C248.765 106.946 248.798 107.19 248.799 107.272C248.801 107.357 248.78 107.422 248.773 107.441C248.764 107.469 248.754 107.491 248.748 107.503C248.728 107.548 248.701 107.588 248.688 107.609C248.654 107.661 248.603 107.731 248.544 107.811C248.424 107.975 248.243 108.212 248.018 108.502C247.566 109.084 246.928 109.892 246.212 110.787C244.782 112.577 243.041 114.722 241.874 116.112C233.04 126.676 207.149 160.503 202.861 167.138L202.86 167.139C201.552 169.147 200.562 170.838 199.927 172.131C199.609 172.779 199.386 173.316 199.255 173.736C199.117 174.179 199.107 174.416 199.127 174.507C199.147 174.595 199.168 174.649 199.183 174.681C199.221 174.67 199.287 174.645 199.384 174.589C199.532 174.504 199.721 174.365 199.955 174.159C200.904 173.323 202.372 171.587 204.573 168.732L244.034 111.112ZM160.194 229.531C160.194 229.531 160.193 229.531 160.193 229.531L159.992 229.073L160.194 229.531ZM199.83 137.689C199.023 139.415 198.187 141.505 197.593 143.191C197.297 144.033 197.058 144.783 196.913 145.342C196.842 145.619 196.789 145.866 196.767 146.06C196.756 146.154 196.75 146.262 196.761 146.365C196.767 146.417 196.78 146.489 196.813 146.564C196.846 146.641 196.913 146.752 197.043 146.829C197.261 146.958 197.494 146.932 197.642 146.898C197.802 146.861 197.968 146.788 198.13 146.702C198.458 146.527 198.863 146.245 199.331 145.877C200.273 145.138 201.54 143.995 203.088 142.497C205.771 139.9 209.324 136.209 213.529 131.635C213.349 131.885 213.162 132.145 212.968 132.415L212.967 132.415C209.086 137.812 205.892 142.58 203.709 146.192C202.619 147.997 201.775 149.521 201.222 150.696C200.947 151.282 200.738 151.793 200.609 152.215C200.488 152.61 200.408 153.014 200.481 153.339C200.541 153.607 200.668 153.888 200.933 154.072C201.201 154.258 201.516 154.279 201.807 154.227C202.358 154.128 203.057 153.73 203.911 153.108C205.653 151.839 208.336 149.41 212.314 145.572L212.314 145.572C217.609 140.463 229.864 127.782 239.055 117.963C228.806 130.568 206.049 160.363 202.022 166.593M199.83 137.689L200.283 137.9L199.83 137.69C199.83 137.689 199.83 137.689 199.83 137.689ZM199.83 137.689C202.12 132.759 205.11 127.918 209.439 122.016L209.441 122.014C210.068 121.17 210.655 120.37 211.174 119.656M211.174 119.656C211.266 119.577 211.357 119.498 211.445 119.421C212.231 118.74 212.874 118.187 213.328 117.803C213.555 117.611 213.733 117.464 213.856 117.364C213.918 117.314 213.962 117.28 213.99 117.259C214.003 117.249 214.008 117.246 214.008 117.246L214.008 117.246C214.007 117.247 213.998 117.253 213.983 117.26L213.983 117.26C213.979 117.262 213.924 117.292 213.847 117.306C213.795 117.315 213.704 117.323 213.6 117.287C213.485 117.248 213.392 117.169 213.334 117.072C213.242 116.919 213.265 116.772 213.268 116.748L213.269 116.746C213.275 116.702 213.287 116.67 213.29 116.659C213.296 116.645 213.3 116.635 213.302 116.631C213.303 116.628 213.303 116.627 213.303 116.627C213.303 116.627 213.298 116.637 213.283 116.662C213.246 116.723 213.183 116.821 213.091 116.958C212.908 117.229 212.631 117.627 212.278 118.124C211.964 118.566 211.591 119.084 211.174 119.656ZM211.174 119.656C209.632 120.996 207.605 122.774 205.41 124.709M205.41 124.709C205.411 124.709 205.411 124.709 205.412 124.708L205.08 124.334L205.41 124.709ZM205.41 124.709C195.981 133.083 188.495 139.533 183.104 143.937C180.409 146.139 178.232 147.834 176.594 149.004C175.775 149.588 175.084 150.047 174.526 150.373C173.987 150.688 173.518 150.913 173.16 150.976C172.846 151.032 172.523 151.032 172.237 150.907C171.927 150.772 171.729 150.519 171.637 150.212C171.552 149.926 171.56 149.6 171.615 149.269C171.671 148.932 171.783 148.549 171.941 148.127C172.57 146.453 174.02 143.937 176.224 140.682M176.224 140.682C176.224 140.683 176.224 140.683 176.224 140.683L176.639 140.962L176.225 140.682C176.225 140.682 176.224 140.682 176.224 140.682ZM176.224 140.682C176.509 140.258 176.777 139.853 177.018 139.482M177.018 139.482C177.246 139.305 177.455 139.144 177.644 139.001C178.014 138.721 178.301 138.512 178.498 138.379C178.599 138.311 178.666 138.269 178.705 138.249C178.726 138.237 178.723 138.241 178.703 138.247C178.698 138.249 178.688 138.253 178.673 138.256C178.658 138.26 178.64 138.263 178.618 138.266C178.584 138.269 178.469 138.279 178.342 138.211L178.579 137.77L178.247 138.144C178.127 138.038 178.097 137.909 178.089 137.85C178.08 137.788 178.086 137.741 178.089 137.723C178.095 137.687 178.103 137.669 178.098 137.682C178.09 137.702 178.07 137.749 178.028 137.829C177.947 137.984 177.815 138.21 177.641 138.496C177.468 138.779 177.256 139.113 177.018 139.482ZM177.018 139.482C176.357 139.994 175.539 140.643 174.594 141.402C172.053 143.445 168.612 146.277 164.901 149.371C157.478 155.561 148.992 162.791 144.5 166.846M144.5 166.846C144.5 166.846 144.5 166.846 144.5 166.846L144.165 166.475L144.5 166.846ZM144.5 166.846C130.827 179.204 124.664 185.492 122.063 189.658L122.063 189.658C118.73 194.98 117.443 198.531 117.104 203.381L117.104 203.384C116.973 205.095 117.231 207.425 117.75 209.738C118.268 212.05 119.037 214.292 119.898 215.832L119.898 215.833C124.958 224.912 134.248 230.437 145.687 231.111L145.688 231.111C147.637 231.228 150.279 230.996 152.892 230.534C155.504 230.072 158.043 229.386 159.79 228.616L159.792 228.615C163.482 226.998 165.838 225.454 169.39 222.261L169.392 222.259C173.953 218.192 175.983 215.956 180.226 210.276L180.227 210.276C186.613 201.745 194.337 189.322 202.682 174.13L202.682 174.129L203.026 173.504C203.878 171.955 204.594 170.654 205.181 169.581C203.088 172.286 201.62 174.025 200.616 174.909C200.355 175.139 200.111 175.324 199.884 175.455C199.663 175.583 199.42 175.682 199.168 175.688C198.888 175.695 198.638 175.586 198.455 175.379C198.29 175.192 198.203 174.954 198.152 174.726C198.07 174.36 198.155 173.904 198.3 173.439C198.452 172.95 198.7 172.362 199.029 171.691C199.69 170.346 200.703 168.618 202.022 166.593M202.022 166.593L202.441 166.866L202.021 166.595C202.021 166.594 202.021 166.594 202.022 166.593ZM203.558 174.612C203.558 174.611 203.558 174.611 203.558 174.611L203.12 174.37L203.558 174.612ZM180.627 210.575L181.027 210.875C181.027 210.875 181.027 210.875 181.027 210.875L180.627 210.575ZM201.507 153.254C201.507 153.254 201.507 153.254 201.507 153.253L201.507 153.254ZM264.927 231.145C234.415 275.42 194.579 308.848 154.856 327.111C115.123 345.378 75.5797 348.441 45.577 332.135C15.5946 315.839 0.696419 283.216 0.934446 243.525C1.17248 203.832 16.5563 157.134 47.0693 112.858C77.5813 68.5834 117.417 35.1548 157.14 16.8923C196.873 -1.3752 236.416 -4.43842 266.419 11.8683C296.401 28.164 311.299 60.7867 311.061 100.478C310.823 140.171 295.44 186.869 264.927 231.145Z" stroke="black"/>
<defs>
<radialGradient id="paint0_radial_2030_3" cx="0" cy="0" r="1" gradientUnits="userSpaceOnUse" gradientTransform="translate(183.82 126.667) rotate(4.96448) scale(87.6176 157.234)">
<stop stop-color="#9153DF" stop-opacity="0.88"/>
<stop offset="1" stop-color="#DBCCEE"/>
</radialGradient>
</defs>
</svg>
